{"title":"Boss (2013) Bengali Film 720p DVDRip MKV By ..ShOpNoHiN..-[BUZZc","uid":9026234,"size":2677187613,"categoryP":"video","categoryS":"hd___movies","magnet":"?xt=urn:btih:551dba53845329ca92b22ad5b0f14642aed6d672&amp;dn=Boss+%282013%29+Bengali+Film+720p+DVDRip+MKV+By+..ShOpNoHiN..-%5BBUZZc&amp;tr=udp%3A%2F%2Ftracker.openbittorrent.com%3A80&amp;tr=udp%3A%2F%2Fopen.demonii.com%3A1337&amp;tr=udp%3A%2F%2Ftracker.coppersurfer.tk%3A6969&amp;tr=udp%3A%2F%2Fexodus.desync.com%3A6969","seeders":1,"leechers":0,"uploader":"BUZZccd","files":8,"time":1381367559,"description":"Genres: Action | Drama | Romance\nRelease date(s) 9 August 2013\nBoss is a 2013 Bengali romantic Action film directed by choreographer Baba Yadav marking his directorial debut.The film is the remake of Telugu Blockbuster film Business Man starring Mahesh Babu and Kajal agarwal. The film is produced under the banner of Reliance Entertainment and Grassroot Entertainment Pvt. Ltd. The film stars Jeet and Subhasree Ganguly in lead roles and Chiranjeet Chatterjee in supporting roles.\n\n\nAll credits goes to Deshi Digital Dhoom And the uploadre ..ShOpNoHiN..\n\n\nGeneral::\nFormat : Matroska\nFormat version : Version 2\nFile size : 2.46 GiB\nDuration : 2h 23mn\nOverall bit rate : 2 448 Kbps\n\nVideo::\nID : 1\nFormat : AVC\nFormat/Info : Advanced Video Codec\nFormat profile : &lt;a class=&quot;__cf_email__&quot; href=&quot;/cdn-cgi/l/email-protection&quot; data-cfemail=&quot;d199b8b6b9919de4ffe1&quot;&gt;[email&amp;#160;protected]&lt;/a&gt;&lt;script cf-hash='f9e31' type=&quot;text/javascript&quot;&gt;\n/* &lt;![CDATA[ */!function(){try{var t=&quot;currentScript&quot;in document?document.currentScript:function(){for(var t=document.getElementsByTagName(&quot;script&quot;),e=t.length;e--;)if(t[e].getAttribute(&quot;cf-hash&quot;))return t[e]}();if(t&amp;&amp;t.previousSibling){var e,r,n,i,c=t.previousSibling,a=c.getAttribute(&quot;data-cfemail&quot;);if(a){for(e=&quot;&quot;,r=parseInt(a.substr(0,2),16),n=2;a.length-n;n+=2)i=parseInt(a.substr(n,2),16)^r,e+=String.fromCharCode(i);e=document.createTextNode(e),c.parentNode.replaceChild(e,c)}}}catch(u){}}();/* ]]&gt; */&lt;/script&gt;\nFormat settings, CABAC : Yes\nFormat settings, ReFrames : 15 frames\nCodec ID : V_MPEG4/ISO/AVC\nDuration : 2h 23mn\nBit rate : 1 999 Kbps\nWidth : 1 280 pixels\nHeight : 544 pixels\nDisplay aspect ratio : 2.35:1\nFrame rate mode : Constant\nFrame rate : 23.976 fps\nColor space : YUV\nChroma subsampling : 4:2:0\nBit depth : 8 bits\nScan type : Progressive\nBits/(Pixel*Frame) : 0.120\nStream size : 1.96 GiB (80%)\n\nAudio::\nID : 2\nFormat : AC-3\nFormat/Info : Audio Coding 3\nMode extension : CM (complete main)\nFormat settings, Endianness : Big\nCodec ID : A_AC3\nDuration : 2h 23mn\nBit rate mode : Constant\nBit rate : 448 Kbps\nChannel(s) : 6 channels\nChannel positions : Front: L C R, Side: L R, LFE\nSampling rate : 48.0 KHz\nBit depth : 16 bits\nCompression mode : Lossy\nStream size : 461 MiB (18%)\nDefault : Yes\nForced : No\n\n\nSCREEN SHOTS::\n &lt;a href=&quot;\nhttps://fbcdn-sphotos-d-a.akamaihd.net/hphotos-ak-prn2/1378868_660249244009120_499063801_n.jpg&quot; rel=&quot;nofollow&quot; target=&quot;_NEW&quot;&gt;\nhttps://fbcdn-sphotos-d-a.akamaihd.net/hphotos-ak-prn2/1378868_660249244009120_499063801_n.jpg&lt;/a&gt;\n &lt;a href=&quot;\nhttps://fbcdn-sphotos-a-a.akamaihd.net/hphotos-ak-prn2/1384094_660249327342445_9953283_n.jpg&quot; rel=&quot;nofollow&quot; target=&quot;_NEW&quot;&gt;\nhttps://fbcdn-sphotos-a-a.akamaihd.net/hphotos-ak-prn2/1384094_660249327342445_9953283_n.jpg&lt;/a&gt;\n &lt;a href=&quot;\nhttps://fbcdn-sphotos-g-a.akamaihd.net/hphotos-ak-ash3/1385745_660249364009108_313672291_n.jpg&quot; rel=&quot;nofollow&quot; target=&quot;_NEW&quot;&gt;\nhttps://fbcdn-sphotos-g-a.akamaihd.net/hphotos-ak-ash3/1385745_660249364009108_313672291_n.jpg&lt;/a&gt;\n &lt;a href=&quot;\nhttps://fbcdn-sphotos-e-a.akamaihd.net/hphotos-ak-prn2/1374781_660249427342435_219569706_n.jpg&quot; rel=&quot;nofollow&quot; target=&quot;_NEW&quot;&gt;\nhttps://fbcdn-sphotos-e-a.akamaihd.net/hphotos-ak-prn2/1374781_660249427342435_219569706_n.jpg&lt;/a&gt;\n &lt;a href=&quot;\nhttps://fbcdn-sphotos-c-a.akamaihd.net/hphotos-ak-prn2/1378518_660249447342433_1507750585_n.jpg&quot; rel=&quot;nofollow&quot; target=&quot;_NEW&quot;&gt;\nhttps://fbcdn-sphotos-c-a.akamaihd.net/hphotos-ak-prn2/1378518_660249447342433_1507750585_n.jpg&lt;/a&gt;\n &lt;a href=&quot;\nhttps://fbcdn-sphotos-d-a.akamaihd.net/hphotos-ak-prn2/1392071_660249497342428_307816659_n.jpg&quot; rel=&quot;nofollow&quot; target=&quot;_NEW&quot;&gt;\nhttps://fbcdn-sphotos-d-a.akamaihd.net/hphotos-ak-prn2/1392071_660249497342428_307816659_n.jpg&lt;/a&gt;\n\n\nPLEASE SEED AS LONG AS POSSIBLE..","torrent":{"xt":"urn:btih:551dba53845329ca92b22ad5b0f14642aed6d672","amp;dn":"Boss+%282013%29+Bengali+Film+720p+DVDRip+MKV+By+..ShOpNoHiN..-%5BBUZZc","amp;tr":["udp%3A%2F%2Ftracker.openbittorrent.com%3A80","udp%3A%2F%2Fopen.demonii.com%3A1337","udp%3A%2F%2Ftracker.coppersurfer.tk%3A6969","udp%3A%2F%2Fexodus.desync.com%3A6969"],"infoHash":"551dba53845329ca92b22ad5b0f14642aed6d672","infoHashBuffer":{"type":"Buffer","data":[85,29,186,83,132,83,41,202,146,178,42,213,176,241,70,66,174,214,214,114]},"announce":[],"urlList":[]}}